# xmcd
#
# Track frame offsets: 
#        150
#        16473
#        32027
#        48079
#        62077
#        73662
#        87975
#        105371
#        119262
#        133393
#        145504
#        155852
#
# Disc length: 2281 seconds
#
# Revision: 1
# Processed by: cddbd v1.5.2PL0 Copyright (c) Steve Scherf et al.
# Submitted via: ExactAudioCopyFreeDBPlugin 1.0
#
DISCID=a408e70c
DTITLE=Kenny Burrell - Have Yourself A Soulful Little Christmas
DYEAR=1966
DGENRE=Weihnachten
TTITLE0=The Little Drummer Boy
TTITLE1=Have Yourself A Merry Little Christmas
TTITLE2=My Favorite Things
TTITLE3=Away In A Manger
TTITLE4=Mary's Little Boy Chile
TTITLE5=White Christmas
TTITLE6=God Rest Ye Merry Gentlemen
TTITLE7=The Christmas Song
TTITLE8=Go Where I Send Thee
TTITLE9=Silent Night
TTITLE10=Twelve Days Of Christmas
TTITLE11=Merry Christmas Baby
EXTD=YEAR: 1966
EXTT0=
EXTT1=
EXTT2=
EXTT3=
EXTT4=
EXTT5=
EXTT6=
EXTT7=
EXTT8=
EXTT9=
EXTT10=
EXTT11=
PLAYORDER=
